<svg xmlns="http://www.w3.org/2000/svg" xmlns:xlink="http://www.w3.org/1999/xlink" version="1.1" x="0px" y="0px" viewBox="0 0 69 86.25" style="enable-background:new 0 0 69 69;" xml:space="preserve"><g><path d="M3.5,64.14355c18.16884,0,42.32041,0,62,0c0.55273,0,1-0.44775,1-1s-0.44727-1-1-1H45.15723V40.6792l19.19238-19.19238   c1.56989-1.56988,1.6235-4.16122-0.01074-5.79443c-1.59452-1.59451-4.18874-1.59446-5.7832,0L38.97266,35.27539V14.46777h2.37207   c0.55273,0,1-0.44775,1-1V5.85645c0-0.55225-0.44727-1-1-1H5.90527c-0.55273,0-1,0.44775-1,1v7.61133c0,0.55225,0.44727,1,1,1   h2.37109v47.67578H3.5c-0.55273,0-1,0.44775-1,1S2.94727,64.14355,3.5,64.14355z M38.97363,62.14355V38.88037   c0-2.66023,4.18359-2.86679,4.18359,0c0,2.35876,0,17.68348,0,23.26318H38.97363z M53.64722,29.36066l-2.24707,2.24707   L50.151,26.92517l2.24707-2.24707L53.64722,29.36066z M54.42505,22.65118l2.24695-2.24701l1.24915,4.68256l-2.24707,2.24707   L54.42505,22.65118z M49.37329,33.63458l-2.24707,2.24707l-1.24915-4.68256l2.24695-2.24701L49.37329,33.63458z M62.9248,17.10693   c0.85401,0.85193,0.79626,2.17884,0.01074,2.96533L59.948,23.05981l-1.24902-4.68256l1.27075-1.27081   C60.75488,16.32129,62.13965,16.3208,62.9248,17.10693z M43.85016,33.22601l1.24908,4.68256l-0.04846,0.04846   c-0.32741-1.42228-1.45765-2.64149-2.89648-3.03516L43.85016,33.22601z M6.90527,6.85645h33.43945v5.61133   c-12.5133,0-26.88863,0-33.43945,0V6.85645z M10.27637,14.46777h26.69629v47.67578H10.27637V14.46777z"/><path d="M33.67871,16.7627h-20.1084c-0.55273,0-1,0.44775-1,1v22.44873c0,0.55225,0.44727,1,1,1h5.63086h8.84668h5.63086   c0.55273,0,1-0.44775,1-1V17.7627C34.67871,17.21045,34.23145,16.7627,33.67871,16.7627z M20.20117,39.21143v-1.57666   c0-1.8877,1.53613-3.42334,3.42383-3.42334s3.42285,1.53564,3.42285,3.42334v1.57666H20.20117z M32.67871,39.21143h-3.63086   v-1.57666c0-2.99023-2.43262-5.42334-5.42285-5.42334s-5.42383,2.43311-5.42383,5.42334v1.57666h-3.63086V18.7627h18.1084V39.21143   z"/><path d="M33.67871,45.24512h-20.1084c-0.55273,0-1,0.44775-1,1v12.604c0,0.55225,0.44727,1,1,1h20.1084c0.55273,0,1-0.44775,1-1   v-12.604C34.67871,45.69287,34.23145,45.24512,33.67871,45.24512z M32.67871,57.84912h-18.1084v-10.604h18.1084V57.84912z"/><path d="M40.36133,40.44336c-0.42545,0.42962-0.36787,1.0511,0,1.41992c0.37255,0.37356,0.98831,0.39913,1.41016,0   c0.4402-0.48804,0.33094-1.08808,0-1.41992C41.40137,40.07324,40.73145,40.07324,40.36133,40.44336z"/></g><text x="0" y="84" fill="#000000" font-size="5px" font-weight="bold" font-family="'Helvetica Neue', Helvetica, Arial-Unicode, Arial, Sans-serif">Created by Vectors Point</text><text x="0" y="89" fill="#000000" font-size="5px" font-weight="bold" font-family="'Helvetica Neue', Helvetica, Arial-Unicode, Arial, Sans-serif">from the Noun Project</text></svg>